<svg width="121" height="80" viewBox="0 0 121 80" fill="none" xmlns="http://www.w3.org/2000/svg">
<path d="M1.52 34.224H9.552V36.464H3.84V38.976H8.896V41.216H3.84V43.76H9.776V46H1.52V34.224ZM14.1763 46V33.744H14.1923L20.1603 42.208L26.2723 33.744H26.3043V46H23.9843V40.384L20.1443 45.84H20.1123L16.4163 40.736V46H14.1763ZM34.9161 34.224C36.3775 34.224 37.4975 34.5867 38.2761 35.312C39.0548 36.0267 39.4441 36.9867 39.4441 38.192C39.4441 38.672 39.3695 39.1573 39.2201 39.648C39.0815 40.128 38.8521 40.5653 38.5321 40.96C38.2228 41.3547 37.8015 41.6747 37.2681 41.92C36.7455 42.1547 36.1001 42.272 35.3321 42.272H33.6681V46H31.3481V34.224H34.9161ZM35.3161 40.016C35.7855 40.016 36.1481 39.9147 36.4041 39.712C36.6708 39.4987 36.8575 39.2533 36.9641 38.976C37.0708 38.6987 37.1241 38.4587 37.1241 38.256C37.1241 38.1387 37.1028 37.984 37.0601 37.792C37.0281 37.5893 36.9535 37.3867 36.8361 37.184C36.7188 36.9813 36.5375 36.8107 36.2921 36.672C36.0575 36.5333 35.7375 36.464 35.3321 36.464H33.6681V40.016H35.3161ZM43.52 34.224H51.552V36.464H45.84V38.976H50.896V41.216H45.84V43.76H51.776V46H43.52V34.224ZM56.1763 46V34.224H59.6963C60.8803 34.224 61.8883 34.4 62.7203 34.752C63.5523 35.104 64.2189 35.5733 64.7203 36.16C65.2323 36.7467 65.6056 37.4027 65.8403 38.128C66.0749 38.8533 66.1923 39.584 66.1923 40.32C66.1923 41.1947 66.0323 41.984 65.7123 42.688C65.4029 43.3813 64.9763 43.9787 64.4323 44.48C63.8883 44.9707 63.2589 45.3493 62.5443 45.616C61.8296 45.872 61.0723 46 60.2723 46H56.1763ZM58.4963 43.76H59.8723C61.0456 43.76 61.9896 43.456 62.7043 42.848C63.4296 42.24 63.7923 41.344 63.7923 40.16C63.7923 39.392 63.6643 38.768 63.4083 38.288C63.1629 37.7973 62.8536 37.4187 62.4803 37.152C62.1176 36.8853 61.7443 36.704 61.3603 36.608C60.9763 36.5013 60.6509 36.448 60.3843 36.448H58.4963V43.76ZM68.3951 46L73.7071 33.76H73.8351L79.1471 46H76.4591L75.5471 43.696H71.6431L70.6831 46H68.3951ZM72.4591 41.744H74.7791L73.6431 38.88L72.4591 41.744ZM93.4078 46.48L85.1678 39.04L85.2158 46H82.8638V33.76H82.9598L91.1838 41.312L91.1358 34.224H93.4718V46.48H93.4078ZM107.336 45.024C107.208 45.1307 106.968 45.2747 106.616 45.456C106.275 45.6373 105.854 45.7973 105.352 45.936C104.851 46.0747 104.296 46.1387 103.688 46.128C102.76 46.1067 101.928 45.9413 101.192 45.632C100.467 45.312 99.8484 44.88 99.3364 44.336C98.835 43.792 98.451 43.168 98.1844 42.464C97.9177 41.76 97.7844 41.008 97.7844 40.208C97.7844 39.0133 98.0244 37.9573 98.5044 37.04C98.9844 36.1227 99.651 35.4027 100.504 34.88C101.368 34.3573 102.371 34.096 103.512 34.096C104.302 34.096 105 34.2027 105.608 34.416C106.216 34.6293 106.712 34.8587 107.096 35.104L106.184 37.296C105.918 37.0933 105.56 36.8853 105.112 36.672C104.675 36.448 104.168 36.336 103.592 36.336C102.995 36.336 102.435 36.5013 101.912 36.832C101.4 37.1627 100.984 37.6107 100.664 38.176C100.355 38.7307 100.2 39.3653 100.2 40.08C100.2 40.8373 100.344 41.504 100.632 42.08C100.92 42.6453 101.331 43.088 101.864 43.408C102.398 43.728 103.022 43.888 103.736 43.888C104.366 43.888 104.904 43.7867 105.352 43.584C105.8 43.3813 106.142 43.168 106.376 42.944L107.336 45.024ZM111.661 34.224H119.693V36.464H113.981V38.976H119.037V41.216H113.981V43.76H119.917V46H111.661V34.224Z" fill="white"/>
<path d="M40.3792 0.379163C40.4347 0.15637 40.6348 0 40.8644 0H74.3712C74.6928 0 74.9308 0.29927 74.8584 0.61263L68.5263 28H33.5L40.3792 0.379163Z" fill="white"/>
<path d="M82.1208 79.6208C82.0653 79.8436 81.8652 80 81.6356 80H48.1288C47.8072 80 47.5692 79.7007 47.6416 79.3874L53.9737 52H89L82.1208 79.6208Z" fill="white"/>
<path d="M75.1253 11.3796C75.1806 11.1566 75.3808 11 75.6106 11H94.3792C94.6982 11 94.9357 11.2948 94.8677 11.6066L91.2912 28H71L75.1253 11.3796Z" fill="white"/>
<path d="M46.8747 68.6204C46.8194 68.8434 46.6192 69 46.3894 69H27.6208C27.3018 69 27.0643 68.7052 27.1323 68.3934L30.7088 52H51L46.8747 68.6204Z" fill="white"/>
</svg>
